<?xml version="1.0" encoding="UTF-8"?>
<svg id="Layer_1" xmlns="http://www.w3.org/2000/svg" version="1.1" viewBox="0 0 100 125">
  <!-- Generator: Adobe Illustrator 29.8.3, SVG Export Plug-In . SVG Version: 2.1.1 Build 3)  -->
  <polygon points="82.6 74.2 82.3 73.2 81.7 71.6 81.3 70.6 80.2 68.6 78.7 66.7 76.7 64.9 74.4 62.8 72.5 61 70.7 59 69.2 57 67.8 54.9 66.3 52.1 65.4 50.2 64.3 48.1 62.9 45.8 61.3 43.7 60.2 42.6 59.1 41.6 57.6 40.5 55.8 39.7 53.5 38.9 51.2 38.6 48.8 38.6 46.5 38.9 43.2 40.1 40 42.3 37.9 44.4 36.6 46.4 35.3 48.7 33.6 52.2 32 55.3 30.2 57.7 28 60.5 21.5 66.5 20.9 67 19.4 69.1 18.2 71.5 17.5 74.5 17.1 77.2 17 80.2 17.3 82.2 18.2 85 19.5 87.6 20.9 89.4 22.7 91.2 25.1 92.8 27.9 94.1 30 94.6 33.2 94.7 36.3 94 38.2 93.1 39 92.5 40.8 91.5 42.5 90.5 44 89.6 45.6 88.9 46.9 88.3 48.4 87.9 50 87.8 51.9 88.1 53.3 88.4 55.6 89.5 58.4 90.9 60.7 92.4 62.8 93.6 64.9 94.5 66.9 94.9 68.6 95 70 94.9 72.2 94.3 75 93 77 91.6 79.1 89.5 80.6 87.5 81.9 84.8 82.7 82.2 83 80 83 77.7 82.9 76.4 82.6 74.2"/>
  <ellipse cx="63.87" cy="20.35" rx="15.4" ry="10.8" transform="translate(36.92 81.72) rotate(-83.96)"/>
  <ellipse cx="36.1" cy="20.31" rx="10.8" ry="15.4" transform="translate(-1.94 3.91) rotate(-6.04)"/>
  <ellipse cx="83.89" cy="44.2" rx="15.3" ry="10.8" transform="translate(22.51 116.48) rotate(-77.44)"/>
  <ellipse cx="16.1" cy="44.2" rx="10.8" ry="15.3" transform="translate(-9.22 4.56) rotate(-12.56)"/>
</svg>