<?xml version="1.0" encoding="UTF-8"?>
<svg id="Layer_1" xmlns="http://www.w3.org/2000/svg" version="1.1" viewBox="0 0 110 135">
  <!-- Generator: Adobe Illustrator 29.8.3, SVG Export Plug-In . SVG Version: 2.1.1 Build 3)  -->
  <path d="M51.51,97.56c-10.85,0-19.69-8.83-19.69-19.53,0-1.56,1.25-2.81,2.81-2.81s2.81,1.25,2.81,2.81c0,7.75,6.31,13.9,14.06,13.9,1.56,0,2.81,1.25,2.81,2.65,0,1.73-1.25,2.98-2.81,2.98h0ZM60.15,18.89c-1.41-5.07-8.7-5.29-10.28,0-8.23,27.73-25.81,35.27-25.81,54.8,0,17.32,13.84,31.31,30.94,31.31s30.94-14,30.94-31.31c0-19.65-17.52-26.94-25.78-54.8h0Z"/>
</svg>