<?xml version="1.0" encoding="UTF-8"?>
<svg id="Layer_1" xmlns="http://www.w3.org/2000/svg" version="1.1" viewBox="0 0 110 135">
  <!-- Generator: Adobe Illustrator 29.8.3, SVG Export Plug-In . SVG Version: 2.1.1 Build 3)  -->
  <path d="M54.44,19.84c-5.03-.24-10.51,2.44-12.52,8.13-5.36-1.15-12.8,2.7-11.5,11.23-5.53-.17-11.7,7.26-7.98,14.36-2.63,2.41-2.49,12.44,6.52,13.16,1.09,8.05,10.67,10.89,15.98,3.62.34.46,1.89,1.27,4.53.6.55,1.18,1.55,4.39,1.47,12.02-.11,10.43-2.51,12.65-4.61,13.79-2.1,1.14-4.39,1.9-4.63,2.23-.24.33-.68.79-.18,1.02.5.22.97.16.97.16h26.5s.75.03.75-.47-.26-.96-3.5-2.19c-3.25-1.23-4.42-2.75-5.01-5.77-.59-3.02-1.09-8.66-.55-10.52.54-1.86,1.53-3.36,4.2-5.25,1.63-1.16,3.37-2.27,4.48-2.96,3.92,2.51,9.92,1.79,12.14-5.26,4.63.14,9.18-5.04,6.21-10.82,1.11-1.29,3.81-9.39-4.41-13.43.71-6.12-2.59-8.62-5.97-8.91.63-5.29-5.95-12.37-13.84-8.92-1.5-3.67-5.13-5.62-9.04-5.81h0ZM66.43,69.7c.29.61.66,1.18,1.09,1.69-.95.35-3.2,1.22-4.39,1.92-1.53.9-2.67,1.64-2.67,1.64,0,0-.04-2.98.27-4.54,2.69.63,4.89.29,5.71-.71h0Z"/>
</svg>