<?xml version="1.0" encoding="UTF-8"?>
<svg id="Layer_1" xmlns="http://www.w3.org/2000/svg" version="1.1" viewBox="0 0 100 125">
  <!-- Generator: Adobe Illustrator 29.8.3, SVG Export Plug-In . SVG Version: 2.1.1 Build 3)  -->
  <path d="M100,57.56v-.08c-.03-.34-.09-.67-.19-1-1.3-6-5.81-11.42-11.81-12.96-2.96-.72-5.97-1.23-9-1.52-2.31-.12-4.43-1.33-5.71-3.26-5.33-7.62-12.77-12-21.89-13.65-8.55-1.39-17.27-1.36-25.82.06-4.94.66-9.33,3.52-11.93,7.77-1.09,1.69-1.94,3.56-3.12,5.18-1.11,1.77-2.49,3.35-4.1,4.68-2.86,1.85-4.85,4.77-5.52,8.1-.41,2.21-.68,4.44-.91,6.68h.05c-.01.23-.01.45,0,.68v5c.03,1.08.91,1.95,2,1.95h7.5c.69-6.64,6.64-11.46,13.28-10.77,5.69.59,10.18,5.09,10.77,10.77h35.77v-.45c.19-6.68,5.76-11.94,12.44-11.75,6.41.18,11.56,5.34,11.75,11.75v.45h4.53c1.09,0,1.97-.87,2-1.95v-5.42c0-.09,0-.17,0-.26h-.09ZM39.4,44.11c-6,0-11.84.15-17.67-.07-2.87-.1-3.54-1.62-2.48-4.34,3.52-9,9.2-11.94,20.15-10.26v14.67ZM65.21,44.11c-6.51.1-13,0-19.89,0v-14.52c7.51-1.39,18.78,4.4,22,11.26.98,2.15.41,3.27-2.11,3.31v-.05Z"/>
  <path d="M21.47,57c-5.25.01-9.5,4.28-9.49,9.53.01,5.25,4.28,9.5,9.53,9.49s9.5-4.28,9.49-9.53c0,0,0-.01,0-.02-.02-5.25-4.28-9.49-9.53-9.47h0ZM21.47,70.73c-2.34,0-4.23-1.89-4.23-4.23,0-2.34,1.89-4.23,4.23-4.23,2.34,0,4.23,1.89,4.23,4.23,0,0,0,0,0,0-.02,2.32-1.91,4.19-4.23,4.18v.04Z"/>
  <path d="M91,64.76c0-5.25-4.26-9.51-9.51-9.51s-9.51,4.26-9.51,9.51c0,5.25,4.26,9.51,9.51,9.51,0,0,0,0,0,0,5.25,0,9.5-4.25,9.5-9.5,0,0,0,0,0-.01ZM77.27,64.76c0-2.34,1.9-4.23,4.24-4.22,2.34,0,4.23,1.9,4.22,4.24,0,2.34-1.9,4.23-4.24,4.22-.01,0-.03,0-.04,0-2.34,0-4.23-1.9-4.23-4.24h.05Z"/>
</svg>